inDegrees=no
num_controls=7
num_derivatives=13
num_iterations=113
num_multipliers=7
num_parameters=0
num_slacks=7
num_states=26
objective=0.512389
objective_accelerations=0.045184
objective_balance=0.002300
objective_effort=0.048912
objective_height=0.404709
objective_ligament=0.011284
solver_duration=1495.009235
status=Solve_Succeeded
success=true
DataType=double
version=3
OpenSimVersion=4.5
endheader
time	/jointset/ground_pelvis/pelvis_tilt/value	/jointset/ground_pelvis/pelvis_tx/value	/jointset/ground_pelvis/pelvis_ty/value	/jointset/hip_l/hip_flexion_l/value	/jointset/hip_l/hip_adduction_l/value	/jointset/hip_l/hip_rotation_l/value	/jointset/back/lumbar_extension/value	/jointset/patellofemoral_l/patellar_flexion_l/value	/jointset/knee_l/knee_flexion_l/value	/jointset/knee_l/knee_adduction_l/value	/jointset/knee_l/knee_rotation_l/value	/jointset/ankle_l/ankle_angle_l/value	/jointset/subtalar_l/subtalar_angle_l/value	/jointset/ground_pelvis/pelvis_tilt/speed	/jointset/ground_pelvis/pelvis_tx/speed	/jointset/ground_pelvis/pelvis_ty/speed	/jointset/hip_l/hip_flexion_l/speed	/jointset/hip_l/hip_adduction_l/speed	/jointset/hip_l/hip_rotation_l/speed	/jointset/back/lumbar_extension/speed	/jointset/patellofemoral_l/patellar_flexion_l/speed	/jointset/knee_l/knee_flexion_l/speed	/jointset/knee_l/knee_adduction_l/speed	/jointset/knee_l/knee_rotation_l/speed	/jointset/ankle_l/ankle_angle_l/speed	/jointset/subtalar_l/subtalar_angle_l/speed	/forceset/tau_hip_flexion_l	/forceset/tau_hip_adduction_l	/forceset/tau_hip_rotation_l	/forceset/tau_knee_flexion_l	/forceset/tau_ankle_angle_l	/forceset/tau_subtalar_angle_l	/forceset/tau_lumbar_extension	lambda_cid13_p0	lambda_cid13_p1	lambda_cid13_p2	lambda_cid13_p3	lambda_cid13_p4	lambda_cid13_p5	lambda_cid14_p0	/jointset/ground_pelvis/pelvis_tilt/accel	/jointset/ground_pelvis/pelvis_tx/accel	/jointset/ground_pelvis/pelvis_ty/accel	/jointset/hip_l/hip_flexion_l/accel	/jointset/hip_l/hip_adduction_l/accel	/jointset/hip_l/hip_rotation_l/accel	/jointset/back/lumbar_extension/accel	/jointset/patellofemoral_l/patellar_flexion_l/accel	/jointset/knee_l/knee_flexion_l/accel	/jointset/knee_l/knee_adduction_l/accel	/jointset/knee_l/knee_rotation_l/accel	/jointset/ankle_l/ankle_angle_l/accel	/jointset/subtalar_l/subtalar_angle_l/accel	gamma_cid13_p0	gamma_cid13_p1	gamma_cid13_p2	gamma_cid13_p3	gamma_cid13_p4	gamma_cid13_p5	gamma_cid14_p0
0	-0.03674470989179429	0.05664340779207715	0.9203430440570324	0.3085816938045678	-0.2956173512260797	-0.3011149344866685	-0.3879492264334186	0.249926942118479	0.2499269421184919	-0.1745311650668325	-0.174049386705969	-0.0008036623358878681	0.0004552518761385702	0	0	0	0	0	0	0	0	0	0	0	0	0	0.0522122022177821	-0.01910040012447251	-0.01596736307363377	-0.2103704609446876	0.1428846329696246	-0.01994964170922428	0.0174195133112935	1.636320946555599	5.294628751577099	2.223103123265833	23.9616507863022	-629.254550424576	-62.52953717479562	-23.18061728903445	-1.591268652776145	-2.175174330973961	-0.9037592332310076	9.528545220155435	-0.4720246952214569	2.832991367312563	-6.266987240265848	8.235538996312068	8.235538996312073	1.657390346386223	-0.04840560377457184	0.8797805258254088	-0.2201239691936978	-1.2857478442655e-08	1.40530186081593e-07	-1.032520669941852e-07	6.576782870722798e-08	-1.692584696052761e-07	4.757916548468708e-08	3.523965670336308e-08
0.01	-0.03682108854981337	0.05653321219508427	0.9202980473743194	0.3090529955078739	-0.295643400986052	-0.30097112865646	-0.3882741235098594	0.2503339613784801	0.2503339613785041	-0.1744551961601393	-0.1740494847043382	-0.0007641338506016412	0.0004401422228297592	-0.01529859507277883	-0.02220149119871562	-0.009044153910352381	0.09442370063843933	-0.005398404140128448	0.02876654680639183	-0.06576853836164956	0.08137238573059298	0.0813723857305932	0.01478151779786917	-9.500899799896104e-05	0.00760445833740206	-0.003321376118733733	0.06077498449985948	-0.03355340880125907	-0.01689780072835104	-0.2189406775473094	0.1473580223284223	-0.01195120675842383	0.009429641260204884	3.496805668346517	1.657805726726068	2.617121930632838	24.39628234120303	-625.9823460898536	-71.22407219123068	-23.1851641787212	-1.502577850226644	-2.266979129893965	-0.9114999267883845	9.423788909729785	-0.6020254721370786	2.899317364765675	-6.85015559583672	8.083361372590366	8.083361372590373	1.326709017967251	-0.001383612756241555	0.6555921153297019	-0.4330705766777995	-2.189267601315463e-08	1.160512908978412e-07	5.032660011335186e-08	3.773444748456658e-08	-9.28083177248858e-08	-3.828363358576025e-09	7.682477434474164e-09
0.02	-0.0370511377416829	0.05619613316299033	0.9201612578611331	0.3104734355023828	-0.2957290902271711	-0.3005394911526955	-0.3892803796622558	0.2515537590980369	0.2515537590980365	-0.1742437767711694	-0.1740527998056486	-0.0006575980564143116	0.0003828335796407379	-0.03073410677354091	-0.04537668702020915	-0.01835856609469284	0.1898276582385458	-0.0119278962293921	0.05756633471131906	-0.1362718151922371	0.1625556919074836	0.1625556919074839	0.02709009645493472	-0.0006434205937414323	0.01340146178009123	-0.008439797976050994	0.0693377667819267	-0.04800641747806677	-0.01782823838321477	-0.2275108941499153	0.1518314116872115	-0.003952771807646094	0.001439769209118644	5.423470704494902	-1.988151032554428	3.009792909585191	24.77959309801906	-621.6881857742021	-79.83510433160012	-23.19897135233599	-1.618651978373172	-2.369915255529225	-0.9578108880286196	9.724596612488833	-0.6982422850485115	2.839639587019675	-7.213934934053681	8.197723085571532	8.197723085571493	1.162802518225451	-0.1390861233232176	0.5182895468831711	-0.5795331169102986	-3.092787358365425e-08	9.157239571408934e-08	2.039052672208889e-07	9.701066261905178e-09	-1.635816584449546e-08	-5.523589220183913e-08	-1.987470183441476e-08
0.03	-0.03743491672354132	0.0556265323071744	0.919930845239064	0.3128439746604826	-0.2958828355689953	-0.2998223526927599	-0.39099850360264	0.2535796581735595	0.2535796581735655	-0.1739173704768696	-0.1740634244918707	-0.0004981073029267922	0.0002697709613873419	-0.04590474405122946	-0.06829866024561809	-0.02768112795041078	0.2835777890878627	-0.01871867437538562	0.08569787087706225	-0.2064737459247091	0.2421436388579429	0.242143638857944	0.03821244262565401	-0.001428266300586745	0.01861669193556091	-0.01402367323718438	0.05867631227006738	-0.03974731589101827	-0.01669678418493202	-0.219310766880353	0.1464337066955832	-0.005739886093062621	0.01135491991960041	3.526439424568404	-0.969442364836285	2.949717918381078	23.69205488237727	-624.9147180692889	-76.34565557007714	-23.22193202805974	-1.448735216846902	-2.216612943670712	-0.9130572417677928	9.094855797654271	-0.6541570093546234	2.775358439463123	-6.791438099481756	7.767261934955492	7.767261934955607	1.09017493837445	-0.04016197959986783	0.5411434951654599	-0.5254954887123439	-5.111881640434073e-08	8.596964068626304e-08	2.335473703075995e-07	3.639511341945534e-08	-1.282195182526018e-07	-8.012785441465986e-08	-2.199000193512685e-08
0.04	-0.03796689520103611	0.05483505680158034	0.9196084913169528	0.3161309420223843	-0.2961014209782769	-0.2988288093095457	-0.3933922700416728	0.2563870230056252	0.2563870230056247	-0.1734790958664879	-0.1740802932722012	-0.0002828634988268401	0.0001053334389231807	-0.0603740059041929	-0.08975161697583404	-0.03674682610308529	0.3731132989972237	-0.02489590972057234	0.1128473193672708	-0.2714003149227402	0.3188488432152962	0.3188488432152981	0.0494637596715443	-0.001892239416814382	0.02455207190249816	-0.01871477881821593	0.04801485775819211	-0.03148821430396994	-0.01556532998668613	-0.21111063961079	0.1410360017039539	-0.007527000378479204	0.02127007063007035	1.691355620024374	0.04142131497452187	2.887465130611999	22.55161804332649	-627.1920505209265	-72.77772199594843	-23.25319588728378	-1.478376893428513	-2.076111956490331	-0.9064381474199298	8.881672424497625	-0.5755337248871689	2.643222051912788	-6.158862587165733	7.621174566950266	7.621174566950238	1.188596693259598	-0.07491160519962567	0.662319509177002	-0.4009791808898401	-7.153977459101045e-08	8.075608442453829e-08	2.606340803217156e-07	6.421756116216451e-08	-2.439635820893371e-07	-1.044731039134509e-07	-2.358072720762911e-08
0.05	-0.03864064823559791	0.05383569654202149	0.9191963738546527	0.3202942924259246	-0.2963791249205592	-0.2975689647785131	-0.3964116355265489	0.2599480842536876	0.2599480842536976	-0.1729283256095801	-0.174100965611043	-5.405101765492994e-06	-0.0001022355137490759	-0.07427947244472269	-0.1099437118596222	-0.04566602878071209	0.4589951361519117	-0.03059431278332244	0.1389567842669606	-0.3319056146439306	0.3929527104264117	0.3929527104264146	0.06061169423784953	-0.002234087055707689	0.03097506925457614	-0.02273328850687933	0.04030382388068806	-0.02977893143694711	-0.01473358705888964	-0.2061962879059386	0.1368558904128909	-0.005167846058302394	0.02825274191154682	0.4513969797387699	-0.7803539463591271	3.034815264955803	21.67010217549057	-628.1642548375836	-73.42395292620125	-23.29167167663334	-1.332064611895687	-1.964236723774871	-0.8831154195184935	8.357184653177704	-0.5594475434326203	2.570049953008009	-5.911288553894801	7.243393131250953	7.243393131251082	1.066137783179562	-0.01255597270837474	0.6376093155968223	-0.3924709674005289	-8.581990035094676e-08	7.134778766509266e-08	2.855218273163128e-07	8.192497626589569e-08	-3.173646991826891e-07	-1.235393297280984e-07	-2.628039630713945e-08
0.06	-0.03945054255105537	0.05263971963973512	0.9186953735472599	0.3252996102594662	-0.2967123036827627	-0.2960529773496826	-0.4000190389864926	0.264237864240483	0.2642378642404831	-0.172268426818036	-0.1741248033521533	0.0003373471622917958	-0.0003480263842171025	-0.08760226208653532	-0.1290749455213394	-0.0545233951216761	0.5415067849955317	-0.0359908737046182	0.1640758989270941	-0.3890079099371299	0.4645925909598773	0.4645925909598811	0.07128946659869628	-0.002525319873565176	0.03761084530160234	-0.02635916237737976	0.03259279000318249	-0.02806964856993074	-0.01390184413117171	-0.2012819362010736	0.1326757791218271	-0.002808691738131488	0.03523541319302357	-0.7343480215716324	-1.609039598021113	3.18031781576807	20.7333413258787	-628.3059166419748	-73.99868656799951	-23.33630605291878	-1.361841513685433	-1.863939712075873	-0.8940708800873697	8.207634762283996	-0.515165296596318	2.445152004001573	-5.478261701567724	7.128377231420203	7.128377231420203	1.094564252167849	-0.06478864099240338	0.7048752481669384	-0.32245201725716	-9.98414647455469e-08	6.176287025311143e-08	3.103169863942988e-07	9.920649525851198e-08	-3.889829553605302e-07	-1.423832808613083e-07	-2.902675777831329e-08
0.07000000000000001	-0.04039139931152885	0.0512572215399574	0.9181057871216224	0.3311153489923364	-0.2970980455361872	-0.2942903108305115	-0.4041823120496523	0.2692329297343334	0.2692329297343392	-0.1715041009955512	-0.1741512908975544	0.000747248871053948	-0.0006283261827059497	-0.100498701675237	-0.1472963608974548	-0.06340816606463577	0.6212138065585496	-0.04112437972892689	0.1883401232432256	-0.4433046369442821	0.5340751556027853	0.5340751556027876	0.08146534673089385	-0.002746359010746521	0.04435812337029651	-0.029670238302079	0.02723615902663572	-0.02688474825221588	-0.01338461020430643	-0.1992520290863012	0.1314917462257847	-0.001727261681334148	0.03994800356303372	-0.9796984910799854	-2.0273758479664	3.237451853219122	19.84719849869105	-627.5972183994799	-73.9549128451694	-23.38590526732668	-1.242986448865656	-1.781975368388995	-0.8879002749018435	7.788154414966638	-0.5075161381010639	2.399418234373223	-5.354068338235906	6.806399088022514	6.806399088022246	0.9625838144132679	0.003166719453864844	0.6579461864301248	-0.3308964380892385	-1.086972175907277e-07	-1.261453117938123e-08	3.433548184539305e-07	9.947830172327542e-08	-4.316198162991352e-07	-1.70615332325998e-07	-4.068651063777844e-08
0.08	-0.04145910872135523	0.04969636270281728	0.9174269089718551	0.3377153416531767	-0.2975341370264065	-0.2922885299503894	-0.4088782904104695	0.2749124614760765	0.274912461476077	-0.1706413195876116	-0.1741792031804137	0.001224281780545314	-0.0009408289520443258	-0.1129727919601237	-0.1647470929938189	-0.07238173994762215	0.6983575705878048	-0.04606080106335138	0.2118987711175333	-0.4955489694693538	0.6014858405375497	0.6014858405375504	0.09098058368979242	-0.002810267366529728	0.05103708544737222	-0.03279975654729504	0.02187952805008541	-0.02569984793450428	-0.01286737627746841	-0.197222121971522	0.1303077133297424	-0.0006458316245397332	0.04466059393304036	-1.177270156076278	-2.451712554563569	3.292840733059422	18.90812279338976	-626.1604343129441	-73.84700473842345	-23.43921662655494	-1.27737165292278	-1.709803056125363	-0.9118314680927093	7.69498325553141	-0.4757483586194931	2.304036715636839	-5.067782805151834	6.714001289791431	6.714001289791441	0.9624356175079993	-0.03336248471271458	0.6912120498435147	-0.2861404813604421	-1.172196922714298e-07	-9.117209287126163e-08	3.769244358672169e-07	9.865270737979028e-08	-4.723869098029507e-07	-1.99453067683041e-07	-5.292132100616559e-08
0.09	-0.04264954527589251	0.04796545138650636	0.9166578927350744	0.3450730475085648	-0.2980182824264812	-0.2900558580361984	-0.4140839055116455	0.2812552419911633	0.2812552419911679	-0.1696861842593705	-0.174207767242247	0.001768295680497277	-0.001283186321338202	-0.1250252694249915	-0.1812468893945775	-0.08142730270677809	0.772631793722428	-0.05070485752505819	0.2344676707161159	-0.5450107516565308	0.6666655582284198	0.6666655582284231	0.09997542631259734	-0.002890302144691559	0.05781055070492536	-0.03558999395380345	0.01378745912332172	-0.02360967393108443	-0.01210677130604524	-0.1935523671384888	0.1278589840843602	0.001035851821220067	0.05195570707637337	-1.82357115135694	-3.066367056094129	3.387934257116454	17.64230764435767	-626.1678036320401	-73.85122712312111	-23.49488670403992	-1.1557955653096	-1.591806083133334	-0.9018831107983887	7.210863582536396	-0.4492433708214724	2.208058723506048	-4.800881059589187	6.359262152834875	6.359262152835244	0.8573645608149748	0.0065840360486739	0.6771369567573111	-0.2632345779898526	-1.219919793617827e-07	-1.109585641265143e-07	3.82323487230352e-07	1.040011173951897e-07	-4.951462722384869e-07	-2.065323499529979e-07	-5.510752381684491e-08
